# xmcd CD database file
#
# Track frame offsets:
#	150
#	14409
#	27411
#	40144
#	54240
#	67767
#	81905
#	94288
#	107473
#	121267
#	135938
#	149230
#	160740
#	173463
#	187452
#	200675
#	215837
#	230565
#	242992
#	255672
#	269070
#	282404
#	295515
#	307849
#	322415
#
# Disc length: 4463 seconds
#
# Revision: 0
# Processed by: cddbd v1.5.2PL0 Copyright (c) Steve Scherf et al.
# Submitted via: CDex 1.51
#
DISCID=7c116d19
DTITLE=The Carter Family - Roots of Country
DYEAR=2009
DGENRE=Country
TTITLE0=Wildwood Flowers
TTITLE1=Bury Me Under The Weeping Willow
TTITLE2=Keep On The Sunny Side
TTITLE3=Can The Circle Be Unbroken?
TTITLE4=I'm Thinking Tonight Of My Blue Eyes
TTITLE5=My Clinch Mountain Home
TTITLE6=Anchored In Love
TTITLE7=John Hardy Was A Desperate Little Man
TTITLE8=Chewing Gum
TTITLE9=Little Darling Pal Of Mine
TTITLE10=Wasbash Cannonball
TTITLE11=Kimmy Brown The Newsboy
TTITLE12=Lulu Walls
TTITLE13=Sweet Fearn
TTITLE14=The Foggy Mountain Top
TTITLE15=Diamonds In The Rough
TTITLE16=Meet Me By The Moonlight Alone
TTITLE17=Single Girl, Married Girl
TTITLE18=The Storms Are On The Ocean
TTITLE19=The Cannonball
TTITLE20=Carter's Blues
TTITLE21=I Never Loved But One
TTITLE22=The Homestead On The Farm
TTITLE23=Will You Miss Me When I'm Gone?
TTITLE24=Don't Forget This Song
EXTD=YEAR: 2009
EXTT0=
EXTT1=
EXTT2=
EXTT3=
EXTT4=
EXTT5=
EXTT6=
EXTT7=
EXTT8=
EXTT9=
EXTT10=
EXTT11=
EXTT12=
EXTT13=
EXTT14=
EXTT15=
EXTT16=
EXTT17=
EXTT18=
EXTT19=
EXTT20=
EXTT21=
EXTT22=
EXTT23=
EXTT24=
PLAYORDER=
